<?xml version="1.0" standalone="no"?><!DOCTYPE svg PUBLIC "-//W3C//DTD SVG 1.1//EN" "http://www.w3.org/Graphics/SVG/1.1/DTD/svg11.dtd"><svg t="1592649205432" class="icon" viewBox="0 0 1078 1024" version="1.1" xmlns="http://www.w3.org/2000/svg" p-id="7557" xmlns:xlink="http://www.w3.org/1999/xlink" width="210.546875" height="200"><defs><style type="text/css"></style></defs><path d="M53.894737 647.235611C53.894737 572.384984 113.997261 512 188.638158 512L889.256577 512C963.607477 512 1024 572.609471 1024 647.235611L1024 754.207307C1024 799.126566 987.953486 835.368421 943.296841 835.368421L134.597897 835.368421C89.813911 835.368421 53.894737 799.439608 53.894737 754.207307L53.894737 647.235611 53.894737 647.235611ZM0 647.235611 0 754.207307C0 829.201618 60.045434 889.263158 134.597897 889.263158L943.296841 889.263158C1017.784126 889.263158 1077.894737 828.826802 1077.894737 754.207307L1077.894737 647.235611C1077.894737 542.887408 993.416063 458.105263 889.256577 458.105263L188.638158 458.105263C84.175307 458.105263 0 542.676162 0 647.235611L0 647.235611Z" p-id="7558"></path><path d="M187.59475 492.455643 280.622568 166.858281C285.39909 150.140455 305.906519 134.736842 323.023361 134.736842L458.105263 134.736842C472.987884 134.736842 485.052632 122.672094 485.052632 107.789474L485.052632 58.898309C485.052632 56.406918 487.64 53.894737 490.824475 53.894737L587.070259 53.894737C590.507073 53.894737 592.842105 56.163935 592.842105 58.898309L592.842105 107.789474C592.842105 122.672094 604.906852 134.736842 619.789474 134.736842L754.871377 134.736842C772.207853 134.736842 792.501404 150.160599 797.272166 166.858281L890.299985 492.455643C894.388558 506.765639 909.303544 515.051742 923.61354 510.963171 937.923535 506.874601 946.209636 491.959616 942.121068 477.64962L849.093249 152.052258C837.73378 112.294125 796.351316 80.842105 754.871377 80.842105L619.789474 80.842105 646.736842 107.789474 646.736842 58.898309C646.736842 26.048287 619.932818 0 587.070259 0L490.824475 0C458.224637 0 431.157895 26.280197 431.157895 58.898309L431.157895 107.789474 458.105263 80.842105 323.023361 80.842105C281.888067 80.842105 240.200899 112.154319 228.801488 152.052258L135.773671 477.64962C131.6851 491.959616 139.971203 506.874601 154.281199 510.963171 168.591195 515.051742 183.50618 506.765639 187.59475 492.455643L187.59475 492.455643Z" p-id="7559"></path><path d="M215.578947 754.526316C260.226809 754.526316 296.421053 718.332071 296.421053 673.684211 296.421053 629.03635 260.226809 592.842105 215.578947 592.842105 170.931086 592.842105 134.736842 629.03635 134.736842 673.684211 134.736842 718.332071 170.931086 754.526316 215.578947 754.526316L215.578947 754.526316ZM215.578947 700.631579C200.696327 700.631579 188.631579 688.566833 188.631579 673.684211 188.631579 658.801589 200.696327 646.736842 215.578947 646.736842 230.461568 646.736842 242.526316 658.801589 242.526316 673.684211 242.526316 688.566833 230.461568 700.631579 215.578947 700.631579L215.578947 700.631579Z" p-id="7560"></path><path d="M862.315789 754.526316C906.96365 754.526316 943.157895 718.332071 943.157895 673.684211 943.157895 629.03635 906.96365 592.842105 862.315789 592.842105 817.667929 592.842105 781.473684 629.03635 781.473684 673.684211 781.473684 718.332071 817.667929 754.526316 862.315789 754.526316L862.315789 754.526316ZM862.315789 700.631579C847.433167 700.631579 835.368421 688.566833 835.368421 673.684211 835.368421 658.801589 847.433167 646.736842 862.315789 646.736842 877.198411 646.736842 889.263158 658.801589 889.263158 673.684211 889.263158 688.566833 877.198411 700.631579 862.315789 700.631579L862.315789 700.631579Z" p-id="7561"></path><path d="M80.842121 862.301292C80.842108 862.330977 80.842108 862.330977 80.842105 862.360668L80.842105 916.165648C80.842105 975.466469 129.201817 1024 188.631579 1024 248.38528 1024 296.421053 975.80939 296.421053 916.165648L296.421053 862.360668C296.42105 862.330799 296.42105 862.330799 296.421036 862.300931L296.406185 835.368421 269.473672 835.368421 107.789485 835.368421 80.856612 835.368421 80.842121 862.301292 80.842121 862.301292ZM134.73685 862.330287 107.789486 862.315789 107.789486 889.263158 269.473672 889.263158 269.473672 862.315789 242.526308 862.330648C242.526314 862.345658 242.526314 862.345658 242.526316 862.360668L242.526316 916.165648C242.526316 946.082908 218.581143 970.105263 188.631579 970.105263 159.01043 970.105263 134.736842 945.744427 134.736842 916.165648L134.736842 862.360668C134.736844 862.34548 134.736844 862.34548 134.73685 862.330287L134.73685 862.330287Z" p-id="7562"></path><path d="M781.4737 862.301292C781.473684 862.330977 781.473684 862.330977 781.473684 862.360668L781.473684 916.165648C781.473684 975.466469 829.833394 1024 889.263158 1024 949.016856 1024 997.052632 975.80939 997.052632 916.165648L997.052632 862.360668C997.052626 862.330799 997.052626 862.330799 997.052615 862.300931L997.037762 835.368421 970.105252 835.368421 808.421063 835.368421 781.488193 835.368421 781.4737 862.301292 781.4737 862.301292ZM835.368432 862.330287 808.421063 862.315789 808.421063 889.263158 970.105252 889.263158 970.105252 862.315789 943.157884 862.330648C943.157895 862.345658 943.157895 862.345658 943.157895 862.360668L943.157895 916.165648C943.157895 946.082908 919.212722 970.105263 889.263158 970.105263 859.642007 970.105263 835.368421 945.744427 835.368421 916.165648L835.368421 862.360668C835.368421 862.34548 835.368421 862.34548 835.368432 862.330287L835.368432 862.330287Z" p-id="7563"></path><path d="M797.136524 463.124656 608.504945 328.387814C596.394458 319.737466 579.564479 322.542463 570.914132 334.65295 562.263784 346.763436 565.068778 363.593418 577.179265 372.243765L765.810844 506.980607C777.921331 515.630955 794.75131 512.825958 803.401658 500.715471 812.052006 488.604985 809.247011 471.775003 797.136524 463.124656L797.136524 463.124656Z" p-id="7564"></path><path d="M527.66284 463.124656 339.031261 328.387814C326.920774 319.737466 310.090793 322.542463 301.440445 334.65295 292.790098 346.763436 295.595095 363.593418 307.705581 372.243765L496.33716 506.980607C508.447647 515.630955 525.277628 512.825958 533.927976 500.715471 542.578322 488.604985 539.773327 471.775003 527.66284 463.124656L527.66284 463.124656Z" p-id="7565"></path></svg>