<?xml version="1.0" standalone="no"?><!DOCTYPE svg PUBLIC "-//W3C//DTD SVG 1.1//EN" "http://www.w3.org/Graphics/SVG/1.1/DTD/svg11.dtd"><svg t="1592649111955" class="icon" viewBox="0 0 1024 1024" version="1.1" xmlns="http://www.w3.org/2000/svg" p-id="5076" xmlns:xlink="http://www.w3.org/1999/xlink" width="200" height="200"><defs><style type="text/css"></style></defs><path d="M179.584 107.2a25.6 25.6 0 0 1 37.1712-35.2l178.816 188.9024a25.6 25.6 0 0 1 5.3376 8.4736c1.2928 3.392 2.9696 8.8064 4.5696 15.9232 7.6288 34.0096 5.9264 71.0272-11.9552 106.3808a152.064 152.064 0 0 1-25.472 35.9808c-44.4544 46.976-93.632 54.8352-136.8576 38.528a89.4464 89.4464 0 0 1-17.0496-8.3328 25.6 25.6 0 0 1-4.5312-3.8016L32.6016 267.0464a25.6 25.6 0 0 1 37.1968-35.2l174.3872 184.256c1.2288 0.6016 2.944 1.3696 5.0944 2.176 25.0496 9.472 52.352 5.1072 81.6-25.8048a100.9024 100.9024 0 0 0 16.9472-23.8976c11.776-23.2832 12.9408-48.64 7.68-72.064a112.3072 112.3072 0 0 0-1.1392-4.672L179.584 107.2zM532.3008 645.2992a25.6 25.6 0 0 1 36.1984-36.1984l243.2 243.2a25.6 25.6 0 0 1-36.1984 36.1984l-243.2-243.2z" p-id="5077"></path><path d="M161.1008 261.2992a25.6 25.6 0 0 1 36.1984-36.1984l320 320a25.6 25.6 0 0 1-36.1984 36.1984l-320-320z" p-id="5078"></path><path d="M485.0048 479.744a25.6 25.6 0 0 1 0-35.84l163.8912-167.0528c109.952-112.0896 219.776-139.136 311.4752-116.6464 10.5088 2.5728 18.2272 5.2736 22.8608 7.3472a25.6 25.6 0 0 1 7.8464 41.3056L286.7968 926.7328a25.6 25.6 0 0 1-36.544 0l-50.9312-51.9168a25.6 25.6 0 0 1 0-35.8528l319.0528-325.2096-33.3696-33.9968zM268.544 872.256L922.752 205.3888c-69.5936-7.8848-151.2448 19.584-237.312 107.3152L539.136 461.824l33.3696 33.9968a25.6 25.6 0 0 1 0 35.84L253.4656 856.896l15.0656 15.36z" p-id="5079"></path></svg>