<?xml version="1.0" standalone="no"?><!DOCTYPE svg PUBLIC "-//W3C//DTD SVG 1.1//EN" "http://www.w3.org/Graphics/SVG/1.1/DTD/svg11.dtd"><svg t="1592488076040" class="icon" viewBox="0 0 1024 1024" version="1.1" xmlns="http://www.w3.org/2000/svg" p-id="2328" xmlns:xlink="http://www.w3.org/1999/xlink" width="200" height="200"><defs><style type="text/css"></style></defs><path d="M415.3344 354.54976c-41.86112 0-73.9328-30.72-102.48192-79.7696a429.73184 429.73184 0 0 1-23.30624-46.73536c-4.096-9.56416-7.00416-17.1008-8.6016-21.7088l-1.98656-5.59104v-5.9392c0-68.32128 32.31744-112.55808 107.25376-102.1952 26.46016 3.64544 46.22336 11.18208 72.9088 25.31328l8.99072 4.8128c3.31776 1.76128 5.77536 3.05152 8.0896 4.21888 14.27456 7.24992 23.40864 10.0352 33.8944 10.0352 7.45472 0 13.59872-2.39616 25.35424-9.9328 2.17088-1.39264 10.89536-7.14752 10.3424-6.7584 30.76096-20.13184 54.6816-29.14304 90.60352-27.99616 76.1856 2.37568 101.43744 36.33152 101.43744 102.5024v5.9392l-1.96608 5.61152c-1.61792 4.58752-4.5056 12.14464-8.6016 21.68832-6.79936 15.85152-14.58176 31.744-23.32672 46.73536-28.54912 49.02912-60.6208 79.7696-102.46144 79.7696h-186.1632z m-61.78816-153.92768c5.7344 13.4144 12.30848 26.8288 19.47648 39.1168 16.91648 29.06112 33.73056 45.17888 42.2912 45.17888h186.1632c8.56064 0 25.3952-16.11776 42.2912-45.17888 7.168-12.288 13.7216-25.7024 19.49696-39.1168 2.048-4.77184 3.6864-8.84736 4.9152-12.06272-0.12288-25.66144-2.29376-25.68192-33.95584-26.66496-19.12832-0.6144-30.4128 3.64544-50.31936 16.67072 0.9216-0.6144-8.27392 5.44768-10.89536 7.12704-21.9136 14.04928-39.5264 20.93056-62.91456 20.93056-23.22432 0-42.20928-5.81632-65.39264-17.55136a1630.80192 1630.80192 0 0 1-18.57536-9.8304c-19.84512-10.48576-32.64512-15.36-49.43872-17.65376-22.67136-3.13344-27.48416 1.08544-28.03712 27.09504 1.2288 3.19488 2.8672 7.24992 4.89472 11.93984zM917.21728 785.408c0 76.43136-61.70624 147.2512-136.35584 147.2512H246.08768c-74.6496 0-136.35584-70.84032-136.35584-147.2512l0.26624-4.3008c0.45056-3.74784 1.41312-10.40384 2.88768-19.57888 2.4576-15.13472 5.5296-31.92832 9.3184-49.99168 10.8544-51.69152 25.21088-103.424 43.64288-152.02304 55.25504-145.57184 135.61856-236.01152 249.46688-236.01152h196.32128c113.8688 0 194.21184 90.43968 249.4464 236.01152 18.432 48.57856 32.80896 100.33152 43.66336 152.02304a1090.92864 1090.92864 0 0 1 11.4688 64.18432l0.55296 3.8912 0.12288 1.024 0.04096 0.32768v0.08192l0.28672 4.36224z m-69.9392 0.1024a1021.60384 1021.60384 0 0 0-10.69056-59.67872c-10.15808-48.39424-23.59296-96.768-40.61184-141.59872-46.05952-121.36448-107.99104-191.0784-184.32-191.0784h-196.34176c-76.34944 0-138.30144 69.71392-184.36096 191.0784-16.9984 44.8512-30.45376 93.184-40.59136 141.59872a1021.48096 1021.48096 0 0 0-8.72448 46.77632c-1.06496 6.5536-1.80224 11.59168-2.2528 14.86848 1.10592 39.15776 33.3824 75.5712 66.70336 75.5712h534.77376c33.30048 0 65.57696-36.39296 66.70336-75.55072l-0.28672-1.98656z"  p-id="2329"></path><path d="M633.91744 686.57152a23.73632 23.73632 0 0 1 0 47.47264h-96.256v62.2592a23.71584 23.71584 0 1 1-47.39072 0v-62.2592h-96.89088a23.71584 23.71584 0 0 1 0-47.47264h96.8704v-30.1056h-96.8704a23.71584 23.71584 0 1 1 0-47.45216h65.49504l-67.05152-119.17312a23.73632 23.73632 0 0 1 41.0624-23.7568l80.73216 142.92992h4.096l80.71168-142.90944a23.71584 23.71584 0 0 1 41.0624 23.7568l-67.05152 119.15264h61.48096a23.7568 23.7568 0 0 1 0 47.45216h-96.256v30.1056h96.256z"  p-id="2330"></path></svg>