<?xml version="1.0" standalone="no"?><!DOCTYPE svg PUBLIC "-//W3C//DTD SVG 1.1//EN" "http://www.w3.org/Graphics/SVG/1.1/DTD/svg11.dtd"><svg t="1592649150798" class="icon" viewBox="0 0 1028 1024" version="1.1" xmlns="http://www.w3.org/2000/svg" p-id="6144" xmlns:xlink="http://www.w3.org/1999/xlink" width="200.78125" height="200"><defs><style type="text/css"></style></defs><path d="M816.288 985.312H211.712a118.976 118.976 0 0 1-118.944-118.688V441.248a23.776 23.776 0 0 1 47.52 0v425.376a71.36 71.36 0 0 0 71.424 71.168h604.576a71.488 71.488 0 0 0 71.392-71.392V602.88a23.776 23.776 0 0 1 47.52 0v263.488a119.04 119.04 0 0 1-118.912 118.944z" fill="" p-id="6145"></path><path d="M34.528 535.264a23.744 23.744 0 0 1-17.024-40.288L497.6 39.2A23.904 23.904 0 0 1 514.656 32h0.096a23.616 23.616 0 0 1 17.056 7.36l482.4 455.744a23.744 23.744 0 0 1-34.368 32.768L514.464 90.016 51.552 528.064a23.744 23.744 0 0 1-17.024 7.2z" fill="" p-id="6146"></path><path d="M401.632 980.192h-47.52V630.144a118.784 118.784 0 0 1 118.688-118.624h85.984a118.944 118.944 0 0 1 118.688 118.88v345.632h-47.552V630.4a71.296 71.296 0 0 0-71.136-71.328h-85.984a71.2 71.2 0 0 0-71.168 71.104v350.016zM887.68 430.368V262.88a23.776 23.776 0 0 1 47.52 0v167.488" fill="" p-id="6147"></path></svg>