<?xml version="1.0" standalone="no"?><!DOCTYPE svg PUBLIC "-//W3C//DTD SVG 1.1//EN" "http://www.w3.org/Graphics/SVG/1.1/DTD/svg11.dtd"><svg t="1593611846758" class="icon" viewBox="0 0 1024 1024" version="1.1" xmlns="http://www.w3.org/2000/svg" p-id="5572" xmlns:xlink="http://www.w3.org/1999/xlink" width="200" height="200"><defs><style type="text/css"></style></defs><path d="M172.896 254.277l469.271-108.36 152.145 658.89-469.271 108.36z" fill="#FFFFFF" p-id="5573"></path><path d="M791.7 795.1c-15.5 3.6-31.1 7.2-46.6 10.8l-111.9 25.8c-45.3 10.5-90.6 20.9-135.9 31.4-39 9-78.1 18-117.1 27-12.9 3-25.7 5.9-38.6 8.9-6 1.4-12.4 2.4-18.4 4.2-0.3 0.1-0.5 0.1-0.8 0.2 4.1 2.3 8.2 4.7 12.3 7l-15.3-66c-12.1-52.5-24.2-105-36.4-157.5-14.6-63.4-29.3-126.8-43.9-190.2-12.6-54.8-25.3-109.5-37.9-164.3-4.2-18-8.3-36.1-12.5-54.1-2-8.5-3.4-17.3-5.9-25.6-0.1-0.4-0.2-0.7-0.3-1.1-2.3 4.1-4.7 8.2-7 12.3 15.5-3.6 31.1-7.2 46.6-10.8L334 227.3c45.3-10.5 90.6-20.9 135.9-31.4 39-9 78.1-18 117.1-27 12.9-3 25.7-5.9 38.6-8.9 6-1.4 12.4-2.4 18.4-4.2 0.3-0.1 0.5-0.1 0.8-0.2-4.1-2.3-8.2-4.7-12.3-7l15.3 66c12.1 52.5 24.2 105 36.4 157.5 14.6 63.4 29.3 126.8 43.9 190.2 12.6 54.8 25.3 109.5 37.9 164.3 6.1 26.5 11.3 53.4 18.4 79.7 0.1 0.4 0.2 0.7 0.3 1.1 2.9 12.5 22.2 7.2 19.3-5.3l-15.3-66c-12.1-52.5-24.2-105-36.4-157.5-14.6-63.4-29.3-126.8-43.9-190.2-12.6-54.8-25.3-109.5-37.9-164.3-6.1-26.5-11.3-53.4-18.4-79.7-0.1-0.4-0.2-0.7-0.3-1.1-1.3-5.4-7.2-8.2-12.3-7-15.5 3.6-31.1 7.2-46.6 10.8L481 172.9c-45.3 10.5-90.6 20.9-135.9 31.4-39 9-78.1 18-117.1 27-18.9 4.4-38.3 7.9-57 13.2-0.3 0.1-0.5 0.1-0.8 0.2-5.4 1.3-8.2 7.2-7 12.3l15.3 66c12.1 52.5 24.2 105 36.4 157.5 14.6 63.4 29.3 126.8 43.9 190.2 12.6 54.8 25.3 109.5 37.9 164.3 6.1 26.5 11.3 53.4 18.4 79.7 0.1 0.4 0.2 0.7 0.3 1.1 1.3 5.4 7.2 8.2 12.3 7 15.5-3.6 31.1-7.2 46.6-10.8l111.9-25.8c45.3-10.5 90.6-20.9 135.9-31.4 39-9 78.1-18 117.1-27 18.9-4.4 38.3-7.9 57-13.2 0.3-0.1 0.5-0.1 0.8-0.2 12.5-2.9 7.2-22.2-5.3-19.3z" fill="rgb(140, 177, 253)" p-id="5574"></path><path d="M490.9 292.3c-37.4 8.7-53.7 36.6-53.7 36.6s-26.9-18-64.3-9.3c-34.8 8-34.4 66.3-8.5 87 34 27.1 66.4 18.1 102.2 49.9 18.3-44.3 51.3-50.4 70-89.6 14.4-30.1-10.9-82.7-45.7-74.6z" fill="#FFFFFF" p-id="5575"></path><path d="M488.3 282.6c-23.2 5.6-47.2 20.1-59.6 41.2 4.6-1.2 9.1-2.4 13.7-3.6-12.4-8.2-28.6-11.9-43.1-12.9-21.4-1.4-44.5 3.2-55.7 23.3-9 16-9.6 36.5-4.3 53.8 2.7 9 7.1 17.3 13.3 24.4 7.7 8.8 18.9 15.2 29.5 19.9 12.5 5.6 25.8 9 38.8 13.3 14.3 4.7 27.5 11.5 39 21.5 4.3 3.7 13 4.3 15.7-2 6.8-16.2 16.9-29.2 29.6-41.2 11.8-11.2 23.9-21.9 33.1-35.6 9-13.3 14.1-27.9 12.3-44.1-1.7-15.5-7.7-30.2-17.8-42-11.4-13.1-27.7-19.6-44.5-16-12.6 2.7-7.3 22 5.3 19.3 4.3-0.9 8.9-0.5 13 1.3 4.4 1.9 8.1 5 11.8 9.4 6.8 7.9 11.6 20.4 12.2 30.7 0.5 6.6 0 10.4-1.8 16.3-0.5 1.7-2 4.7-3.5 7.5-2.1 3.7-4.4 7.4-6.9 10.8-8.2 11.1-19.1 19.9-29 29.5-13.2 12.7-24.2 27-31.3 43.9 5.2-0.7 10.5-1.3 15.7-2-9.9-8.6-20.6-15.7-32.7-20.9-10.4-4.5-21.2-7.6-32-11-10.4-3.2-20.4-6.9-29.8-12.7-4.1-2.5-8.1-5.2-11.5-8.7-2.7-2.7-3.5-4-5.6-7.7-6.6-11.9-8.3-27.8-4.4-40.9 0.3-1 0.6-1.9 1-2.9 1.1-3-0.8 1.6 0.5-1.3 0.7-1.5 1.5-2.9 2.3-4.3 0.4-0.7 0.9-1.4 1.3-2 1-1.4-1.5 1.6 0.5-0.6 0.6-0.7 1.3-1.4 2-2.1 0.1-0.1 2.3-2 0.9-0.9 1.4-1.1 2.9-2 4.5-2.8 0.4-0.2 2.3-0.9 0.8-0.4 1-0.4 1.9-0.7 2.9-0.9 5.5-1.5 11.2-2.1 16.9-2.2 10.5-0.2 20.7 1.6 30.5 5.3 0.7 0.3 1.5 0.6 2.2 0.9 0.7 0.3 0.6 0.2-0.4-0.2 0.5 0.2 1 0.4 1.5 0.7 1.2 0.6 2.4 1.1 3.6 1.8 1.1 0.6 2.2 1.2 3.3 1.9 4.5 3 11.1 0.9 13.7-3.6 0.8-1.4 1.8-2.7 2.8-4 0.7-1-1.3 1.6-0.4 0.6 0.4-0.4 0.7-0.9 1.1-1.3 0.7-0.8 1.3-1.6 2-2.3 1.7-1.9 3.6-3.8 5.5-5.6 10-9.3 22.9-16 36.8-19.3 12.5-3 7.2-22.3-5.3-19.3z" fill="rgb(140, 177, 253)" p-id="5576"></path><path d="M391.4 589.1l201.2-46.5" fill="#FFFFFF" p-id="5577"></path><path d="M394 598.8c22.7-5.2 45.4-10.5 68.1-15.7 36.1-8.3 72.3-16.7 108.4-25 8.3-1.9 16.5-3.8 24.8-5.7 12.5-2.9 7.2-22.2-5.3-19.3-22.7 5.2-45.4 10.5-68.1 15.7-36.1 8.3-72.3 16.7-108.4 25-8.3 1.9-16.5 3.8-24.8 5.7-12.5 2.9-7.2 22.2 5.3 19.3z" fill="rgb(140, 177, 253)" p-id="5578"></path><path d="M405.1 648.6l201.3-46.5" fill="#FFFFFF" p-id="5579"></path><path d="M407.7 658.2c22.7-5.2 45.4-10.5 68.1-15.7 36.1-8.3 72.3-16.7 108.4-25 8.3-1.9 16.5-3.8 24.8-5.7 12.5-2.9 7.2-22.2-5.3-19.3-22.7 5.2-45.4 10.5-68.1 15.7-36.1 8.3-72.3 16.7-108.4 25-8.3 1.9-16.5 3.8-24.8 5.7-12.5 2.9-7.2 22.2 5.3 19.3z" fill="rgb(140, 177, 253)" p-id="5580"></path><path d="M418.8 708l201.3-46.5" fill="#FFFFFF" p-id="5581"></path><path d="M421.5 717.6c22.7-5.2 45.4-10.5 68.1-15.7 36.1-8.3 72.3-16.7 108.4-25 8.3-1.9 16.5-3.8 24.8-5.7 12.5-2.9 7.2-22.2-5.3-19.3-22.7 5.2-45.4 10.5-68.1 15.7-36.1 8.3-72.3 16.7-108.4 25-8.3 1.9-16.5 3.8-24.8 5.7-12.6 2.9-7.3 22.2 5.3 19.3z" fill="rgb(140, 177, 253)" p-id="5582"></path><path d="M432.5 767.4l201.3-46.5" fill="#FFFFFF" p-id="5583"></path><path d="M435.2 777.1c22.7-5.2 45.4-10.5 68.1-15.7 36.1-8.3 72.3-16.7 108.4-25 8.3-1.9 16.5-3.8 24.8-5.7 12.5-2.9 7.2-22.2-5.3-19.3-22.7 5.2-45.4 10.5-68.1 15.7-36.1 8.3-72.3 16.7-108.4 25-8.3 1.9-16.5 3.8-24.8 5.7-12.6 2.9-7.2 22.2 5.3 19.3z" fill="rgb(140, 177, 253)" p-id="5584"></path><path d="M663.4 794.8l-0.6-0.2c-3-0.8-4.8-3.9-4-6.9l8-29.7c0.8-3 3.9-4.8 6.9-4l0.6 0.2c3 0.8 4.8 3.9 4 6.9l-8 29.7c-0.8 3-3.9 4.8-6.9 4z" fill="#FFFFFF" p-id="5585"></path><path d="M666.1 785.1c-2.6-0.7 1.2 7.2 2.6 4.6 0.4-0.8 0.5-2 0.8-2.9 0.9-3.5 1.9-7 2.8-10.4 1-3.7 2-7.3 3-11 0.3-1.1 0.9-2.5 1-3.7 0.4-3.7 3.2 3.4-5.1 1.9 2.8 0.5-1.3-7-2.5-4.9-0.4 0.8-0.5 2-0.8 2.8-0.9 3.4-1.8 6.8-2.8 10.3-1 3.8-2.1 7.6-3.1 11.4-0.3 1.1-0.8 2.3-0.9 3.5-0.6 4-2.3-2.6 5-1.6-5.3-0.8-10.7 1.3-12.3 7-1.3 4.7 1.6 11.5 7 12.3 8.7 1.3 16.5-2.2 19.3-11.1 0.8-2.6 1.4-5.3 2.1-7.9 1.9-7.2 4.3-14.3 5.8-21.6 1.8-8.3-2.4-17-11-19.3-8.3-2.3-16.7 2.1-19.6 10.2-2.3 6.7-3.8 13.7-5.6 20.6-0.9 3.2-1.9 6.4-2.6 9.6-1.9 8.8 2.6 17.2 11.5 19.6 12.5 3.3 17.8-16 5.4-19.4z" fill="rgb(140, 177, 253)" p-id="5586"></path><path d="M660.182 755.795l3.274-12.168 25.011 6.73-3.273 12.167z" fill="#FFFFFF" p-id="5587"></path><path d="M687.9 752.9c-8.3-2.2-16.7-4.5-25-6.7 2.3 4.1 4.7 8.2 7 12.3 1.1-4.1 2.2-8.1 3.3-12.2-4.1 2.3-8.2 4.7-12.3 7 8.3 2.2 16.7 4.5 25 6.7-2.3-4.1-4.7-8.2-7-12.3-1.1 4.1-2.2 8.1-3.3 12.2-3.3 12.4 15.9 17.8 19.3 5.3 1.1-4.1 2.2-8.1 3.3-12.2 1.4-5.2-1.7-10.9-7-12.3-8.3-2.2-16.7-4.5-25-6.7-5.2-1.4-10.9 1.7-12.3 7-1.1 4.1-2.2 8.1-3.3 12.2-1.4 5.2 1.7 10.9 7 12.3 8.3 2.2 16.7 4.5 25 6.7 12.4 3.3 17.7-16 5.3-19.3z" fill="rgb(140, 177, 253)" p-id="5588"></path><path d="M657.151 740.029l3.274-12.168 38.628 10.392-3.274 12.168z" fill="#FFFFFF" p-id="5589"></path><path d="M698.4 740.8c-12.9-3.5-25.7-6.9-38.6-10.4 2.3 4.1 4.7 8.2 7 12.3 1.1-4.1 2.2-8.1 3.3-12.2-4.1 2.3-8.2 4.7-12.3 7 12.9 3.5 25.7 6.9 38.6 10.4-2.3-4.1-4.7-8.2-7-12.3-1.1 4.1-2.2 8.1-3.3 12.2-3.3 12.4 15.9 17.8 19.3 5.3 1.1-4.1 2.2-8.1 3.3-12.2 1.4-5.2-1.7-10.9-7-12.3-12.9-3.5-25.7-6.9-38.6-10.4-5.2-1.4-10.9 1.7-12.3 7-1.1 4.1-2.2 8.1-3.3 12.2-1.4 5.2 1.7 10.9 7 12.3 12.9 3.5 25.7 6.9 38.6 10.4 12.4 3.4 17.7-15.9 5.3-19.3z" fill="rgb(140, 177, 253)" p-id="5590"></path><path d="M810.47 187.844l8.003-29.744 29.743 8.002-8.002 29.744z" fill="#FFFFFF" p-id="5591"></path><path d="M842.9 186.2c-9.9-2.7-19.9-5.3-29.8-8 2.3 4.1 4.7 8.2 7 12.3 2.7-9.9 5.3-19.9 8-29.8-4.1 2.3-8.2 4.7-12.3 7 9.9 2.7 19.9 5.3 29.8 8-2.3-4.1-4.7-8.2-7-12.3-2.7 9.9-5.3 19.9-8 29.8-3.3 12.4 15.9 17.8 19.3 5.3 2.7-9.9 5.3-19.9 8-29.8 1.4-5.2-1.7-10.9-7-12.3-9.9-2.7-19.9-5.3-29.8-8-5.2-1.4-10.9 1.7-12.3 7-2.7 9.9-5.3 19.9-8 29.8-1.4 5.2 1.7 10.9 7 12.3 9.9 2.7 19.9 5.3 29.8 8 12.4 3.4 17.7-15.9 5.3-19.3z" fill="rgb(140, 177, 253)" p-id="5592"></path><path d="M805.82 341.202l30.422-113.083 29.744 8.002-30.423 113.083z" fill="#FFFFFF" p-id="5593"></path><path d="M838.3 339.6c-9.9-2.7-19.9-5.3-29.8-8 2.3 4.1 4.7 8.2 7 12.3 8.9-33 17.7-65.9 26.6-98.9 1.3-4.7 2.5-9.5 3.8-14.2-4.1 2.3-8.2 4.7-12.3 7 9.9 2.7 19.9 5.3 29.8 8-2.3-4.1-4.7-8.2-7-12.3-8.9 33-17.7 65.9-26.6 98.9-1.3 4.7-2.5 9.5-3.8 14.2-3.3 12.4 15.9 17.8 19.3 5.3 8.9-33 17.7-65.9 26.6-98.9 1.3-4.7 2.5-9.5 3.8-14.2 1.4-5.2-1.7-10.9-7-12.3-9.9-2.7-19.9-5.3-29.8-8-5.2-1.4-10.9 1.7-12.3 7-8.9 33-17.7 65.9-26.6 98.9-1.3 4.7-2.5 9.5-3.8 14.2-1.4 5.2 1.7 10.9 7 12.3 9.9 2.7 19.9 5.3 29.8 8 12.4 3.4 17.7-15.9 5.3-19.3z" fill="rgb(140, 177, 253)" p-id="5594"></path><path d="M656.152 723.436l144.786-538.184 48.768 13.12L704.92 736.555z" fill="#FFFFFF" p-id="5595"></path><path d="M707.6 727c-16.2-4.4-32.5-8.7-48.7-13.1 2.3 4.1 4.7 8.2 7 12.3l14.4-53.7c11.5-42.8 23-85.6 34.6-128.4 14-51.9 27.9-103.9 41.9-155.8 12-44.7 24.1-89.5 36.1-134.2 3.9-14.7 7.9-29.3 11.8-44 1.9-7 4.3-14.1 5.7-21.2 0.1-0.3 0.2-0.6 0.2-0.9-4.1 2.3-8.2 4.7-12.3 7 16.2 4.4 32.5 8.7 48.7 13.1-2.3-4.1-4.7-8.2-7-12.3l-14.4 53.7c-11.5 42.8-23 85.6-34.6 128.4-14 51.9-27.9 103.9-41.9 155.8-12 44.7-24.1 89.5-36.1 134.2-5.8 21.7-12.4 43.3-17.5 65.2-0.1 0.3-0.2 0.6-0.2 0.9-3.3 12.4 15.9 17.8 19.3 5.3l14.4-53.7c11.5-42.8 23-85.6 34.6-128.4 14-51.9 27.9-103.9 41.9-155.8 12-44.7 24.1-89.5 36.1-134.2 5.8-21.7 12.4-43.3 17.5-65.2 0.1-0.3 0.2-0.6 0.2-0.9 1.4-5.2-1.7-10.9-7-12.3-16.2-4.4-32.5-8.7-48.7-13.1-5.2-1.4-10.9 1.7-12.3 7l-14.4 53.7c-11.5 42.8-23 85.6-34.6 128.4-14 51.9-27.9 103.9-41.9 155.8-12 44.7-24.1 89.5-36.1 134.2-5.8 21.7-12.4 43.3-17.5 65.2-0.1 0.3-0.2 0.6-0.2 0.9-1.4 5.2 1.7 10.9 7 12.3 16.2 4.4 32.5 8.7 48.7 13.1 12.4 3.3 17.7-16 5.3-19.3z" fill="rgb(140, 177, 253)" p-id="5596"></path></svg>